# xmcd
#
# Track frame offsets:
#	150
#	5357
#	21576
#	37495
#	54468
#	71488
#	92299
#	108932
#	126327
#	129164
#	149136
#	170890
#	189225
#	205297
#	208846
#	227375
#	230777
#
# Disc length: 3292 seconds
#
# Revision: 0
# Processed by: cddbd v1.5.2PL0 Copyright (c) Steve Scherf et al.
# Submitted via: EasyCDDAExtractor 10.0.2.1
#
DISCID=fb0cda11
DTITLE=Ramiyah
DYEAR=2003
DGENRE=Gospel
TTITLE0=Intro
TTITLE1=Here We Go (Holla)
TTITLE2=Just Stop
TTITLE3=The Reason (with J Moss)
TTITLE4=Turn It Out (Remix)
TTITLE5=I Told You
TTITLE6=Power From God
TTITLE7=Don't Noobody Know (with kierra sheard,dorinda clark cole and karen clar
TTITLE7=k sheard)
TTITLE8=Interlude (girls solo)
TTITLE9=Waiting
TTITLE10=Don't Look Any Further
TTITLE11=Things We Want
TTITLE12=Covered
TTITLE13=Interlude
TTITLE14=You Never Left Me
TTITLE15=Interlude
TTITLE16=Turn It Out
EXTD=
EXTT0=
EXTT1=
EXTT2=
EXTT3=
EXTT4=
EXTT5=
EXTT6=
EXTT7=
EXTT8=
EXTT9=
EXTT10=
EXTT11=
EXTT12=
EXTT13=
EXTT14=
EXTT15=
EXTT16=
PLAYORDER=
